<svg width="73" height="112" viewBox="0 0 73 112" fill="none" xmlns="http://www.w3.org/2000/svg">
<path d="M2.81732 110.826L2.81344 110.825C1.96373 110.473 1.40613 109.64 1.40613 108.717V3.28125C1.40613 2.01988 2.42601 1 3.68738 1H69.3124C70.5737 1 71.5936 2.01982 71.5938 3.28125C71.5938 3.28129 71.5938 3.28133 71.5938 3.28137V108.718C71.5938 109.64 71.0362 110.473 70.1865 110.825L70.1811 110.827C69.3592 111.173 68.3643 110.995 67.6996 110.33C64.966 107.597 60.5339 107.597 57.8003 110.33C56.9092 111.222 55.4658 111.222 54.5746 110.33C51.8411 107.597 47.4089 107.597 44.6753 110.33C43.7842 111.222 42.3408 111.222 41.4496 110.33C38.7161 107.597 34.2839 107.597 31.5503 110.33C30.6592 111.222 29.2158 111.222 28.3246 110.33C25.5911 107.597 21.1589 107.597 18.4253 110.33C17.5342 111.222 16.0908 111.222 15.1996 110.33C12.4661 107.597 8.03394 107.597 5.30033 110.33C4.64372 110.987 3.65876 111.178 2.81732 110.826Z" fill="url(#paint0_linear_1100_202)" stroke="url(#paint1_linear_1100_202)" stroke-width="2"/>
<defs>
<linearGradient id="paint0_linear_1100_202" x1="36.5" y1="-42.8026" x2="36.5" y2="149.452" gradientUnits="userSpaceOnUse">
<stop offset="0.630208" stop-color="#FFAE00"/>
<stop offset="1" stop-color="#FFCD1E"/>
</linearGradient>
<linearGradient id="paint1_linear_1100_202" x1="36.5" y1="0" x2="36.5" y2="112" gradientUnits="userSpaceOnUse">
<stop stop-color="#FF9F00"/>
<stop offset="1" stop-color="#FFB800"/>
</linearGradient>
</defs>
</svg>
