<svg width="18" height="18" viewBox="0 0 18 18" fill="none" xmlns="http://www.w3.org/2000/svg">
<path d="M9 0.53125C4.18359 0.53125 0.28125 4.43359 0.28125 9.25C0.28125 14.0664 4.18359 17.9688 9 17.9688C13.8164 17.9688 17.7188 14.0664 17.7188 9.25C17.7188 4.43359 13.8164 0.53125 9 0.53125ZM12.2344 11.5352L11.5312 12.4141C11.4258 12.5547 11.2852 12.6602 11.0742 12.6602C10.9688 12.6602 10.8281 12.5898 10.7578 12.5195L8.40234 10.7617C8.05078 10.5156 7.875 10.1289 7.875 9.67188V4.1875C7.875 3.90625 8.12109 3.625 8.4375 3.625H9.5625C9.84375 3.625 10.125 3.90625 10.125 4.1875V9.25L12.1641 10.7617C12.2695 10.8672 12.375 11.0078 12.375 11.1836C12.375 11.3242 12.3047 11.4648 12.2344 11.5352Z" fill="white"/>
</svg>
