<svg width="24" height="19" viewBox="0 0 24 19" fill="none" xmlns="http://www.w3.org/2000/svg">
<path d="M23.5312 6.45312C22.4531 7.29688 21.0938 8.32812 16.3125 11.7969C15.375 12.5 13.6406 14.0469 12 14.0469C10.3125 14.0469 8.625 12.5 7.64062 11.7969C2.85938 8.32812 1.5 7.29688 0.421875 6.45312C0.234375 6.3125 0 6.45312 0 6.6875V16.25C0 17.5156 0.984375 18.5 2.25 18.5H21.75C22.9688 18.5 24 17.5156 24 16.25V6.6875C24 6.45312 23.7188 6.3125 23.5312 6.45312ZM12 12.5C13.0781 12.5469 14.625 11.1406 15.4219 10.5781C21.6562 6.07812 22.125 5.65625 23.5312 4.53125C23.8125 4.34375 24 4.01562 24 3.64062V2.75C24 1.53125 22.9688 0.5 21.75 0.5H2.25C0.984375 0.5 0 1.53125 0 2.75V3.64062C0 4.01562 0.140625 4.34375 0.421875 4.53125C1.82812 5.65625 2.29688 6.07812 8.53125 10.5781C9.32812 11.1406 10.875 12.5469 12 12.5Z" fill="#ADADAD"/>
</svg>
