<svg width="18" height="26" viewBox="0 0 18 26" fill="none" xmlns="http://www.w3.org/2000/svg">
<path d="M8.0625 24.4729C8.48438 25.1292 9.46875 25.1292 9.89062 24.4729C16.7344 14.6292 18 13.5979 18 9.94165C18 4.9729 13.9688 0.94165 9 0.94165C3.98438 0.94165 0 4.9729 0 9.94165C0 13.5979 1.21875 14.6292 8.0625 24.4729ZM9 13.6917C6.89062 13.6917 5.25 12.051 5.25 9.94165C5.25 7.87915 6.89062 6.19165 9 6.19165C11.0625 6.19165 12.75 7.87915 12.75 9.94165C12.75 12.051 11.0625 13.6917 9 13.6917Z" fill="#FF7474"/>
</svg>
