<svg width="16" height="19" viewBox="0 0 16 19" fill="none" xmlns="http://www.w3.org/2000/svg">
<path d="M12.375 5.875V4.75C12.375 2.28906 10.3359 0.25 7.875 0.25C5.37891 0.25 3.375 2.28906 3.375 4.75V5.875H0V15.4375C0 17.0195 1.23047 18.25 2.8125 18.25H12.9375C14.4844 18.25 15.75 17.0195 15.75 15.4375V5.875H12.375ZM5.625 4.75C5.625 3.51953 6.60938 2.5 7.875 2.5C9.10547 2.5 10.125 3.51953 10.125 4.75V5.875H5.625V4.75ZM11.25 8.96875C10.7578 8.96875 10.4062 8.61719 10.4062 8.125C10.4062 7.66797 10.7578 7.28125 11.25 7.28125C11.707 7.28125 12.0938 7.66797 12.0938 8.125C12.0938 8.61719 11.707 8.96875 11.25 8.96875ZM4.5 8.96875C4.00781 8.96875 3.65625 8.61719 3.65625 8.125C3.65625 7.66797 4.00781 7.28125 4.5 7.28125C4.95703 7.28125 5.34375 7.66797 5.34375 8.125C5.34375 8.61719 4.95703 8.96875 4.5 8.96875Z" fill="#757575"/>
</svg>
