<svg width="15" height="15" viewBox="0 0 15 15" fill="none" xmlns="http://www.w3.org/2000/svg">
<path d="M13.8086 12.3049L11.0742 9.57056C10.9375 9.46118 10.7734 9.37915 10.6094 9.37915H10.1719C10.9102 8.42212 11.375 7.21899 11.375 5.87915C11.375 2.76196 8.80469 0.19165 5.6875 0.19165C2.54297 0.19165 0 2.76196 0 5.87915C0 9.02368 2.54297 11.5667 5.6875 11.5667C7 11.5667 8.20312 11.1292 9.1875 10.3635V10.8284C9.1875 10.9924 9.24219 11.1565 9.37891 11.2932L12.0859 14.0002C12.3594 14.2737 12.7695 14.2737 13.0156 14.0002L13.7812 13.2346C14.0547 12.9885 14.0547 12.5784 13.8086 12.3049ZM5.6875 9.37915C3.74609 9.37915 2.1875 7.82056 2.1875 5.87915C2.1875 3.96509 3.74609 2.37915 5.6875 2.37915C7.60156 2.37915 9.1875 3.96509 9.1875 5.87915C9.1875 7.82056 7.60156 9.37915 5.6875 9.37915Z" fill="white"/>
</svg>
